<svg id="Group_16" data-name="Group 16" xmlns="http://www.w3.org/2000/svg" xmlns:xlink="http://www.w3.org/1999/xlink" width="48.683" height="48.672" viewBox="0 0 48.683 48.672">
  <defs>
    <clipPath id="clip-path">
      <rect id="Rectangle_7" data-name="Rectangle 7" width="48.683" height="48.672" fill="none"/>
    </clipPath>
  </defs>
  <g id="Group_15" data-name="Group 15" clip-path="url(#clip-path)">
    <path id="Path_11" data-name="Path 11" d="M29.041.469a5.5,5.5,0,0,0,5.245,7.244,5.363,5.363,0,0,0,1.338,5.644,5.344,5.344,0,0,0,5.624,1.318,5.522,5.522,0,0,0,7.009,5.338A24.306,24.306,0,0,1,8.15,42.478,24.322,24.322,0,0,1,29.041.469M43.984,36.523a4.513,4.513,0,0,0-1.827.619c-1.052.633-2.1,1.279-3.146,1.914A4.794,4.794,0,0,1,35,39.594a9.832,9.832,0,0,1-2.14-1.144,4.534,4.534,0,0,0-4.116-.4,11.69,11.69,0,0,0-2.1,1.162,5.059,5.059,0,0,1-4.231.829,4.548,4.548,0,0,1-2.174-1.25c-.69-.72-1.326-1.492-2.029-2.2a4.664,4.664,0,0,0-4.439-1.332,5.56,5.56,0,0,0-1.927.874,4.74,4.74,0,0,1-3.056.757,5.042,5.042,0,0,1-2.225-.771,4.794,4.794,0,0,0-2.482-.679,23.072,23.072,0,0,0,39.9,1.085M24.355,16.62a7.715,7.715,0,1,0,7.706,7.773,7.7,7.7,0,0,0-7.706-7.773M13.487,7.946a.948.948,0,0,0-1.52-.772,21.424,21.424,0,0,0-3.755,3.472,20.927,20.927,0,0,0-3.4,5.549.95.95,0,0,0,.486,1.3A.971.971,0,0,0,6.58,16.9c.284-.63.569-1.262.9-1.866a19.043,19.043,0,0,1,5.567-6.3.944.944,0,0,0,.44-.789" transform="translate(0 -0.001)"/>
    <path id="Path_12" data-name="Path 12" d="M113.553,634.924a23.072,23.072,0,0,1-39.9-1.085,4.794,4.794,0,0,1,2.482.679,5.043,5.043,0,0,0,2.225.771,4.741,4.741,0,0,0,3.056-.758,5.559,5.559,0,0,1,1.927-.874,4.664,4.664,0,0,1,4.439,1.332c.7.707,1.339,1.479,2.029,2.2a4.547,4.547,0,0,0,2.174,1.25,5.058,5.058,0,0,0,4.231-.829,11.692,11.692,0,0,1,2.1-1.162,4.534,4.534,0,0,1,4.116.4,9.828,9.828,0,0,0,2.14,1.144,4.794,4.794,0,0,0,4.007-.537c1.051-.635,2.094-1.282,3.146-1.914a4.512,4.512,0,0,1,1.827-.619" transform="translate(-69.569 -598.401)" fill="#fff"/>
    <path id="Path_13" data-name="Path 13" d="M93.932,126.622a.944.944,0,0,1-.44.789,19.043,19.043,0,0,0-5.567,6.3c-.332.6-.617,1.237-.9,1.866a.971.971,0,0,1-1.279.59.95.95,0,0,1-.486-1.3,20.928,20.928,0,0,1,3.4-5.549,21.423,21.423,0,0,1,3.755-3.472.948.948,0,0,1,1.52.772" transform="translate(-80.445 -118.676)" fill="#fff"/>
  </g>
</svg>
