<svg xmlns="http://www.w3.org/2000/svg" width="18.34" height="20.96" viewBox="0 0 18.34 20.96">
  <path id="Icon_awesome-discord" data-name="Icon awesome-discord" d="M12.167,9.956A1.073,1.073,0,1,1,11.1,8.793,1.117,1.117,0,0,1,12.167,9.956ZM7.273,8.793a1.167,1.167,0,0,0,0,2.327A1.117,1.117,0,0,0,8.342,9.956,1.11,1.11,0,0,0,7.273,8.793ZM18.34,2.159v18.8c-2.64-2.333-1.8-1.561-4.863-4.412l.555,1.939H2.148A2.154,2.154,0,0,1,0,16.327V2.159A2.154,2.154,0,0,1,2.148,0H16.191A2.154,2.154,0,0,1,18.34,2.159Zm-2.987,9.935a14.034,14.034,0,0,0-1.509-6.11,5.182,5.182,0,0,0-2.945-1.1l-.147.168a6.975,6.975,0,0,1,2.609,1.331,8.9,8.9,0,0,0-7.828-.3c-.388.178-.618.3-.618.3A7.07,7.07,0,0,1,7.671,5.009l-.1-.126a5.182,5.182,0,0,0-2.945,1.1,14.034,14.034,0,0,0-1.509,6.11,3.8,3.8,0,0,0,3.2,1.593s.388-.472.7-.87A3.259,3.259,0,0,1,5.177,11.58c.154.108.408.248.43.262a7.639,7.639,0,0,0,6.539.367,6,6,0,0,0,1.205-.618,3.307,3.307,0,0,1-1.9,1.247c.314.4.692.849.692.849A3.831,3.831,0,0,0,15.353,12.094Z" fill="#fff"/>
</svg>
