<svg xmlns="http://www.w3.org/2000/svg" width="20.911" height="20.959" viewBox="0 0 20.911 20.959">
  <path id="Icon_simple-signal" data-name="Icon simple-signal" d="M10.508,2.269c-4.559,0-8.255,3.406-8.255,7.606A7.129,7.129,0,0,0,5.009,15.79H5l.2,2.657v0a.15.15,0,0,0,0,.04V18.5a.267.267,0,0,0,.263.223.3.3,0,0,0,.126-.031l.01-.007,2.529-1.462a10.607,10.607,0,0,0,2.367.261c4.559,0,8.255-3.405,8.255-7.607s-3.7-7.606-8.256-7.606h0ZM9.091.629a11.4,11.4,0,0,1,1.4-.091c.332,0,.655.017.977.045l.05-.536C11.179.017,10.84,0,10.495,0A11.346,11.346,0,0,0,9.018.1L9.09.63h0Zm3.316.082a10.265,10.265,0,0,1,2.279.694l.22-.5c-.115-.049-.23-.1-.347-.144A11.028,11.028,0,0,0,12.5.18l-.1.531ZM20.415,9.93a8.706,8.706,0,0,1-.354,2.319l.515.153a9.214,9.214,0,0,0,.376-2.472ZM5.908,1.584A10.6,10.6,0,0,1,8.166.8L8.049.269a10.621,10.621,0,0,0-1.618.5c-.259.1-.512.214-.757.333l.235.486ZM17.829,2.806a10.484,10.484,0,0,0-2.034-1.461l-.272.472a9.757,9.757,0,0,1,1.942,1.394l.363-.4v0Zm-4.58,16.451a10.837,10.837,0,0,0,2.346-.9l-.275-.465a10.186,10.186,0,0,1-2.2.844ZM3.229,3.5a9.634,9.634,0,0,1,1.86-1.463L4.8,1.573A10.138,10.138,0,0,0,3.1,2.859c-.089.082-.175.167-.262.252l.383.385h0Zm17.012,9.851-.5-.206a9.145,9.145,0,0,1-1.182,2.037l.432.322a9.637,9.637,0,0,0,1.244-2.153h0ZM18.118,3.871a9.2,9.2,0,0,1,1.34,1.946l.485-.24a9.652,9.652,0,0,0-1.421-2.066l-.406.361h0Zm2.23,2.623-.5.213a8.676,8.676,0,0,1,.527,2.279l.537-.053a9.121,9.121,0,0,0-.569-2.439ZM5.595,19.954l-.846.371-.29-.9-.511.166.383,1.176a.265.265,0,0,0,.256.187.266.266,0,0,0,.107-.023l1.12-.492-.219-.491Zm3.339-1.042c-.068-.014-.137-.024-.207-.036l-.406-.069a.272.272,0,0,0-.15.02l-1.7.745.237.484,1.611-.7c.109.018.218.036.324.052.059.015.121.023.183.033l.113-.527Zm3.256.017a10.45,10.45,0,0,1-1.7.136c-.238,0-.458-.013-.674-.033L9.8,19.57c.219.021.446.035.691.035a11.158,11.158,0,0,0,1.789-.145l-.091-.529h0ZM1.342,6.214A9.069,9.069,0,0,1,2.587,4.2l-.41-.355A9.5,9.5,0,0,0,.859,5.968l-.009.018ZM17.948,15.9a10.041,10.041,0,0,1-1.808,1.509l.3.45a10.464,10.464,0,0,0,1.913-1.6ZM.865,12.708a11.659,11.659,0,0,1-.282-2.333H.045a12.125,12.125,0,0,0,.3,2.483l.519-.15ZM.487,6.921A9.2,9.2,0,0,0,.042,9.378L.579,9.4A8.706,8.706,0,0,1,1,7.079L.487,6.921ZM4.154,18.5l-.515-1.585a.267.267,0,0,0-.092-.128c-.2-.159-.392-.32-.576-.487L2.6,16.69c.169.161.356.316.549.472l.49,1.5.513-.161ZM2.316,15.626A6.517,6.517,0,0,1,1.133,13.6l-.5.2c.036.093.072.189.11.281a7,7,0,0,0,1.172,1.9Z" transform="translate(-0.042)" fill="#fff"/>
</svg>
