<svg xmlns="http://www.w3.org/2000/svg" width="19.323" height="15.694" viewBox="0 0 19.323 15.694">
  <path id="Icon_awesome-twitter" data-name="Icon awesome-twitter" d="M17.336,7.292c.012.172.012.343.012.515A11.19,11.19,0,0,1,6.081,19.074,11.191,11.191,0,0,1,0,17.3a8.192,8.192,0,0,0,.956.049,7.931,7.931,0,0,0,4.916-1.692,3.967,3.967,0,0,1-3.7-2.746,4.994,4.994,0,0,0,.748.061,4.188,4.188,0,0,0,1.042-.135A3.961,3.961,0,0,1,.785,8.947V8.9a3.988,3.988,0,0,0,1.79.5A3.966,3.966,0,0,1,1.349,4.1,11.257,11.257,0,0,0,9.514,8.248a4.471,4.471,0,0,1-.1-.907,3.964,3.964,0,0,1,6.854-2.71,7.8,7.8,0,0,0,2.513-.956,3.949,3.949,0,0,1-1.741,2.182,7.939,7.939,0,0,0,2.28-.613,8.513,8.513,0,0,1-1.986,2.047Z" transform="translate(0 -3.381)" fill="#fff"/>
</svg>
