<svg xmlns="http://www.w3.org/2000/svg" width="20.959" height="20.959" viewBox="0 0 20.959 20.959">
  <path id="Icon_ionic-logo-whatsapp" data-name="Icon ionic-logo-whatsapp" d="M12.92,2.25A10.25,10.25,0,0,0,2.631,12.46a10.1,10.1,0,0,0,1.476,5.272L2.25,23.209l5.7-1.81a10.307,10.307,0,0,0,15.263-8.94A10.25,10.25,0,0,0,12.92,2.25Zm5.116,14.087a2.658,2.658,0,0,1-1.82,1.173c-.483.026-.5.374-3.127-.769a10.735,10.735,0,0,1-4.338-4.1,5.046,5.046,0,0,1-.971-2.735,2.916,2.916,0,0,1,1-2.139,1.008,1.008,0,0,1,.713-.3c.207,0,.341-.006.495,0s.383-.032.582.5.676,1.832.737,1.964a.477.477,0,0,1,0,.457,1.787,1.787,0,0,1-.279.425c-.137.147-.289.329-.411.442s-.279.261-.136.527a7.874,7.874,0,0,0,1.393,1.859,7.179,7.179,0,0,0,2.063,1.372c.258.141.412.125.572-.043s.685-.737.87-.99.358-.2.6-.109,1.5.775,1.763.915.43.212.492.323A2.161,2.161,0,0,1,18.036,16.337Z" transform="translate(-2.25 -2.25)" fill="#fff"/>
</svg>
